# xmcd
#
# Track frame offsets:
#	150
#	13150
#	25895
#	40795
#	53197
#	64585
#	77510
#	93552
#	107430
#	116745
#	133100
#	146775
#	162157
#	178257
#	190527
#	205170
#	219282
#	233875
#	248250
#	262805
#	278487
#	290700
#	308977
#
# Disc length: 4328 seconds
#
# Revision: 0
# Processed by: cddbd v1.4PL0 Copyright (c) Steve Scherf et al.
# Submitted via: MusicWizard 6.0.2
#
DISCID=3e10e617
DTITLE=Various Artist - I Love Country [CD 3/3)
DYEAR=1995
DGENRE=Country-Music
TTITLE0=Val and Bird - Get Right Or Get Left
TTITLE1=Alan Jackson - Don't Rock The Jukebox
TTITLE2=Bryan Austin - Radio Active
TTITLE3=Lorrie Morgan - What Part Of No
TTITLE4=Ricky Lynn Gregg - Three Nickels And A Dime
TTITLE5=Rebecca Holden - True Blue Avenue
TTITLE6=Don Williams - I've Been Loved By The Best
TTITLE7=Val and Bird - Dreamer On Your Side
TTITLE8=Billy Troy - All Hat And No Cattle
TTITLE9=Mark Colli - Even The Man In The Moon Is Cryin'
TTITLE10=Gerorge Strait - Easy Come, Easy Go
TTITLE11=Conway Twitty - Two Timin' Two Stepper
TTITLE12=Holden and Brack - Everytime Two Fools Collide
TTITLE13=Clint Black - The Gulf Of Mexico
TTITLE14=Diamond Rio - Oh Me, Oh My, Sweet Baby
TTITLE15=Radney Foster - Just Call Me Lonesome
TTITLE16=Pirates Of The Mississippi - Don't Quit Your Day Job
TTITLE17=Marty Stuart - Wheels
TTITLE18=Carlene Carter - Every Little Thing
TTITLE19=George Jones - I Don't Need Your Rockin' Chair
TTITLE20=Donna Fargo - But You Know I Love You
TTITLE21=Paul Overstreet - All The Fun
TTITLE22=Tanya Tucker - Down To My Last Teardrop
EXTD=
EXTT0=
EXTT1=
EXTT2=
EXTT3=
EXTT4=
EXTT5=
EXTT6=
EXTT7=
EXTT8=
EXTT9=
EXTT10=
EXTT11=
EXTT12=
EXTT13=
EXTT14=
EXTT15=
EXTT16=
EXTT17=
EXTT18=
EXTT19=
EXTT20=
EXTT21=
EXTT22=
PLAYORDER=
